<svg width="0" height="0" class="hidden">
  <symbol viewBox="0 0 0 0" id="sprite">
    <symbol aria-hidden="true" version="1.1" xmlns="http://www.w3.org/2000/svg" xmlns:xlink="http://www.w3.org/1999/xlink" viewBox="0 0 undefined undefined" id="icons">
      <defs>
      <symbol id="icon-sad" viewBox="0 0 32 32">
<path d="M16 32c8.837 0 16-7.163 16-16s-7.163-16-16-16-16 7.163-16 16 7.163 16 16 16zM16 3c7.18 0 13 5.82 13 13s-5.82 13-13 13-13-5.82-13-13 5.82-13 13-13zM8 10c0-1.105 0.895-2 2-2s2 0.895 2 2c0 1.105-0.895 2-2 2s-2-0.895-2-2zM20 10c0-1.105 0.895-2 2-2s2 0.895 2 2c0 1.105-0.895 2-2 2s-2-0.895-2-2zM9.997 24.398l-2.573-1.544c1.749-2.908 4.935-4.855 8.576-4.855s6.827 1.946 8.576 4.855l-2.573 1.544c-1.224-2.036-3.454-3.398-6.003-3.398s-4.779 1.362-6.003 3.398z"></path>
</symbol>
        <symbol id="icon-global" viewBox="0 0 32 32">
          <path d="M0.034 16.668c0.354 8.511 7.369 15.332 15.966 15.332s15.612-6.821 15.966-15.332c0.019-0.053 0.034-0.108 0.034-0.168 0-0.036-0.013-0.067-0.020-0.1 0.003-0.134 0.020-0.265 0.020-0.4 0-8.822-7.178-16-16-16s-16 7.178-16 16c0 0.135 0.017 0.266 0.020 0.4-0.007 0.033-0.020 0.064-0.020 0.1 0 0.060 0.015 0.115 0.034 0.168zM24.921 22.742c-1.319-0.552-2.735-0.979-4.215-1.271 0.158-1.453 0.251-2.962 0.28-4.47h4.98c-0.091 2.054-0.456 3.993-1.045 5.741zM26.965 17h3.984c-0.186 2.806-1.138 5.403-2.663 7.579-0.759-0.533-1.577-1.019-2.457-1.44 0.645-1.869 1.042-3.943 1.136-6.139zM12.389 22.286c1.178-0.184 2.387-0.286 3.611-0.286s2.433 0.102 3.61 0.286c-0.694 5.335-2.21 8.714-3.61 8.714s-2.916-3.379-3.611-8.714zM13.908 30.664c-2.751-0.882-5.078-3.471-6.482-6.984 1.246-0.525 2.586-0.935 3.99-1.217 0.459 3.496 1.298 6.542 2.492 8.201zM12.274 10.709c1.217 0.188 2.465 0.291 3.726 0.291s2.509-0.103 3.726-0.291c0.172 1.62 0.274 3.388 0.274 5.291h-8c0-1.903 0.102-3.671 0.274-5.291zM19.985 17c-0.028 1.525-0.118 2.961-0.26 4.291-1.216-0.188-2.463-0.291-3.725-0.291s-2.509 0.103-3.726 0.291c-0.173-1.626-0.237-3.057-0.26-4.291h7.971zM20.585 22.463c1.404 0.282 2.743 0.692 3.99 1.217-1.404 3.513-3.731 6.102-6.482 6.984 1.193-1.659 2.032-4.705 2.492-8.201zM21 16c0-1.836-0.102-3.696-0.294-5.47 1.48-0.292 2.896-0.72 4.215-1.271 0.684 2.029 1.079 4.315 1.079 6.741h-5zM20.585 9.537c-0.46-3.496-1.298-6.543-2.493-8.201 2.751 0.882 5.078 3.471 6.482 6.984-1.246 0.525-2.585 0.936-3.989 1.217zM19.611 9.714c-1.178 0.184-2.387 0.286-3.611 0.286s-2.433-0.102-3.611-0.286c0.695-5.335 2.211-8.714 3.611-8.714s2.916 3.379 3.611 8.714zM11.415 9.537c-1.404-0.282-2.743-0.692-3.99-1.217 1.404-3.513 3.731-6.102 6.482-6.984-1.193 1.659-2.032 4.705-2.492 8.201zM11.294 10.53c-0.192 1.774-0.294 3.634-0.294 5.47h-5c0-2.426 0.395-4.712 1.079-6.742 1.319 0.552 2.735 0.979 4.215 1.272zM11.014 17c0.029 1.508 0.122 3.017 0.28 4.471-1.48 0.292-2.896 0.72-4.215 1.271-0.589-1.748-0.954-3.687-1.045-5.742h4.98zM6.17 23.139c-0.88 0.422-1.697 0.907-2.456 1.44-1.525-2.176-2.477-4.772-2.663-7.579h3.984c0.094 2.196 0.491 4.27 1.135 6.139zM4.313 25.38c0.685-0.479 1.417-0.922 2.207-1.305 1.004 2.485 2.449 4.548 4.186 5.943-2.526-0.958-4.729-2.568-6.393-4.638zM21.294 30.017c1.738-1.394 3.182-3.458 4.186-5.943 0.79 0.384 1.522 0.826 2.207 1.305-1.664 2.071-3.867 3.681-6.393 4.638zM27 16c0-2.567-0.428-4.987-1.17-7.139 0.88-0.422 1.698-0.907 2.457-1.44 1.704 2.434 2.713 5.389 2.713 8.579h-4zM27.688 6.62c-0.685 0.479-1.417 0.921-2.207 1.305-1.004-2.485-2.449-4.549-4.186-5.943 2.525 0.958 4.728 2.568 6.393 4.638zM10.706 1.983c-1.738 1.394-3.182 3.458-4.186 5.943-0.791-0.384-1.522-0.827-2.207-1.306 1.664-2.070 3.867-3.68 6.393-4.637zM3.714 7.421c0.758 0.533 1.576 1.018 2.456 1.44-0.742 2.152-1.17 4.572-1.17 7.139h-4c0-3.19 1.009-6.145 2.714-8.579z"></path>
        </symbol>
        <symbol id="icon-search" viewBox="0 0 32 32">
          <path d="M31.008 27.231l-7.58-6.447c-0.784-0.705-1.622-1.029-2.299-0.998 1.789-2.096 2.87-4.815 2.87-7.787 0-6.627-5.373-12-12-12s-12 5.373-12 12 5.373 12 12 12c2.972 0 5.691-1.081 7.787-2.87-0.031 0.677 0.293 1.515 0.998 2.299l6.447 7.58c1.104 1.226 2.907 1.33 4.007 0.23s0.997-2.903-0.23-4.007zM12 20c-4.418 0-8-3.582-8-8s3.582-8 8-8 8 3.582 8 8-3.582 8-8 8z"></path>
        </symbol>
        <symbol id="icon-stopwatch" viewBox="0 0 32 32">
          <path d="M16 6.038v-2.038h4v-2c0-1.105-0.895-2-2-2h-6c-1.105 0-2 0.895-2 2v2h4v2.038c-6.712 0.511-12 6.119-12 12.962 0 7.18 5.82 13 13 13s13-5.82 13-13c0-6.843-5.288-12.451-12-12.962zM22.071 26.071c-1.889 1.889-4.4 2.929-7.071 2.929s-5.182-1.040-7.071-2.929c-1.889-1.889-2.929-4.4-2.929-7.071s1.040-5.182 2.929-7.071c1.814-1.814 4.201-2.844 6.754-2.923l-0.677 9.813c-0.058 0.822 0.389 1.181 0.995 1.181s1.053-0.36 0.995-1.181l-0.677-9.813c2.552 0.079 4.94 1.11 6.754 2.923 1.889 1.889 2.929 4.4 2.929 7.071s-1.040 5.182-2.929 7.071z"></path>
        </symbol>
        <symbol id="icon-cloud-upload" viewBox="0 0 32 32">
<path d="M27.883 12.078c0.076-0.347 0.117-0.708 0.117-1.078 0-2.761-2.239-5-5-5-0.444 0-0.875 0.058-1.285 0.167-0.775-2.417-3.040-4.167-5.715-4.167-2.73 0-5.033 1.823-5.76 4.318-0.711-0.207-1.462-0.318-2.24-0.318-4.418 0-8 3.582-8 8s3.582 8 8 8h4v6h8v-6h7c2.761 0 5-2.239 5-5 0-2.46-1.777-4.505-4.117-4.922zM18 20v6h-4v-6h-5l7-7 7 7h-5z"></path>
</symbol>
        <symbol id="icon-spoon-knife" viewBox="0 0 32 32">
          <path d="M7 0c-3.314 0-6 3.134-6 7 0 3.31 1.969 6.083 4.616 6.812l-0.993 16.191c-0.067 1.098 0.778 1.996 1.878 1.996h1c1.1 0 1.945-0.898 1.878-1.996l-0.993-16.191c2.646-0.729 4.616-3.502 4.616-6.812 0-3.866-2.686-7-6-7zM27.167 0l-1.667 10h-1.25l-0.833-10h-0.833l-0.833 10h-1.25l-1.667-10h-0.833v13c0 0.552 0.448 1 1 1h2.604l-0.982 16.004c-0.067 1.098 0.778 1.996 1.878 1.996h1c1.1 0 1.945-0.898 1.878-1.996l-0.982-16.004h2.604c0.552 0 1-0.448 1-1v-13h-0.833z"></path>
        </symbol>
        <symbol id="icon-leaf" viewBox="0 0 32 32">
          <path d="M31.604 4.203c-3.461-2.623-8.787-4.189-14.247-4.189-6.754 0-12.257 2.358-15.099 6.469-1.335 1.931-2.073 4.217-2.194 6.796-0.108 2.296 0.278 4.835 1.146 7.567 2.965-8.887 11.244-15.847 20.79-15.847 0 0-8.932 2.351-14.548 9.631-0.003 0.004-0.078 0.097-0.207 0.272-1.128 1.509-2.111 3.224-2.846 5.166-1.246 2.963-2.4 7.030-2.4 11.931h4c0 0-0.607-3.819 0.449-8.212 1.747 0.236 3.308 0.353 4.714 0.353 3.677 0 6.293-0.796 8.231-2.504 1.736-1.531 2.694-3.587 3.707-5.764 1.548-3.325 3.302-7.094 8.395-10.005 0.292-0.167 0.48-0.468 0.502-0.804s-0.126-0.659-0.394-0.862z"></path>
        </symbol>
        <symbol id="icon-book" viewBox="0 0 32 32">
<path d="M28 4v26h-21c-1.657 0-3-1.343-3-3s1.343-3 3-3h19v-24h-20c-2.2 0-4 1.8-4 4v24c0 2.2 1.8 4 4 4h24v-28h-2z"></path>
<path d="M7.002 26v0c-0.001 0-0.001 0-0.002 0-0.552 0-1 0.448-1 1s0.448 1 1 1c0.001 0 0.001-0 0.002-0v0h18.997v-2h-18.997z"></path>
</symbol>
        <symbol id="icon-sphere1" viewBox="0 0 32 32">
          <path d="M15 2c-8.284 0-15 6.716-15 15s6.716 15 15 15c8.284 0 15-6.716 15-15s-6.716-15-15-15zM23.487 22c0.268-1.264 0.437-2.606 0.492-4h3.983c-0.104 1.381-0.426 2.722-0.959 4h-3.516zM6.513 12c-0.268 1.264-0.437 2.606-0.492 4h-3.983c0.104-1.381 0.426-2.722 0.959-4h3.516zM21.439 12c0.3 1.28 0.481 2.62 0.54 4h-5.979v-4h5.439zM16 10v-5.854c0.456 0.133 0.908 0.355 1.351 0.668 0.831 0.586 1.625 1.488 2.298 2.609 0.465 0.775 0.867 1.638 1.203 2.578h-4.852zM10.351 7.422c0.673-1.121 1.467-2.023 2.298-2.609 0.443-0.313 0.895-0.535 1.351-0.668v5.854h-4.852c0.336-0.94 0.738-1.803 1.203-2.578zM14 12v4h-5.979c0.059-1.38 0.24-2.72 0.54-4h5.439zM2.997 22c-0.533-1.278-0.854-2.619-0.959-4h3.983c0.055 1.394 0.224 2.736 0.492 4h-3.516zM8.021 18h5.979v4h-5.439c-0.3-1.28-0.481-2.62-0.54-4zM14 24v5.854c-0.456-0.133-0.908-0.355-1.351-0.668-0.831-0.586-1.625-1.488-2.298-2.609-0.465-0.775-0.867-1.638-1.203-2.578h4.852zM19.649 26.578c-0.673 1.121-1.467 2.023-2.298 2.609-0.443 0.312-0.895 0.535-1.351 0.668v-5.854h4.852c-0.336 0.94-0.738 1.802-1.203 2.578zM16 22v-4h5.979c-0.059 1.38-0.24 2.72-0.54 4h-5.439zM23.98 16c-0.055-1.394-0.224-2.736-0.492-4h3.516c0.533 1.278 0.855 2.619 0.959 4h-3.983zM25.958 10h-2.997c-0.582-1.836-1.387-3.447-2.354-4.732 1.329 0.636 2.533 1.488 3.585 2.54 0.671 0.671 1.261 1.404 1.766 2.192zM5.808 7.808c1.052-1.052 2.256-1.904 3.585-2.54-0.967 1.285-1.771 2.896-2.354 4.732h-2.997c0.504-0.788 1.094-1.521 1.766-2.192zM4.042 24h2.997c0.583 1.836 1.387 3.447 2.354 4.732-1.329-0.636-2.533-1.488-3.585-2.54-0.671-0.671-1.261-1.404-1.766-2.192zM24.192 26.192c-1.052 1.052-2.256 1.904-3.585 2.54 0.967-1.285 1.771-2.896 2.354-4.732h2.997c-0.504 0.788-1.094 1.521-1.766 2.192z"></path>
        </symbol>
        <symbol id="icon-eye" viewBox="0 0 32 32">
          <path d="M16 6c-6.979 0-13.028 4.064-16 10 2.972 5.936 9.021 10 16 10s13.027-4.064 16-10c-2.972-5.936-9.021-10-16-10zM23.889 11.303c1.88 1.199 3.473 2.805 4.67 4.697-1.197 1.891-2.79 3.498-4.67 4.697-2.362 1.507-5.090 2.303-7.889 2.303s-5.527-0.796-7.889-2.303c-1.88-1.199-3.473-2.805-4.67-4.697 1.197-1.891 2.79-3.498 4.67-4.697 0.122-0.078 0.246-0.154 0.371-0.228-0.311 0.854-0.482 1.776-0.482 2.737 0 4.418 3.582 8 8 8s8-3.582 8-8c0-0.962-0.17-1.883-0.482-2.737 0.124 0.074 0.248 0.15 0.371 0.228v0zM16 13c0 1.657-1.343 3-3 3s-3-1.343-3-3 1.343-3 3-3 3 1.343 3 3z"></path>
        </symbol>
        <symbol id="icon-eye-blocked" viewBox="0 0 32 32">
          <path d="M29.561 0.439c-0.586-0.586-1.535-0.586-2.121 0l-6.318 6.318c-1.623-0.492-3.342-0.757-5.122-0.757-6.979 0-13.028 4.064-16 10 1.285 2.566 3.145 4.782 5.407 6.472l-4.968 4.968c-0.586 0.586-0.586 1.535 0 2.121 0.293 0.293 0.677 0.439 1.061 0.439s0.768-0.146 1.061-0.439l27-27c0.586-0.586 0.586-1.536 0-2.121zM13 10c1.32 0 2.44 0.853 2.841 2.037l-3.804 3.804c-1.184-0.401-2.037-1.521-2.037-2.841 0-1.657 1.343-3 3-3zM3.441 16c1.197-1.891 2.79-3.498 4.67-4.697 0.122-0.078 0.246-0.154 0.371-0.228-0.311 0.854-0.482 1.776-0.482 2.737 0 1.715 0.54 3.304 1.459 4.607l-1.904 1.904c-1.639-1.151-3.038-2.621-4.114-4.323z"></path>
          <path d="M24 13.813c0-0.849-0.133-1.667-0.378-2.434l-10.056 10.056c0.768 0.245 1.586 0.378 2.435 0.378 4.418 0 8-3.582 8-8z"></path>
          <path d="M25.938 9.062l-2.168 2.168c0.040 0.025 0.079 0.049 0.118 0.074 1.88 1.199 3.473 2.805 4.67 4.697-1.197 1.891-2.79 3.498-4.67 4.697-2.362 1.507-5.090 2.303-7.889 2.303-1.208 0-2.403-0.149-3.561-0.439l-2.403 2.403c1.866 0.671 3.873 1.036 5.964 1.036 6.978 0 13.027-4.064 16-10-1.407-2.81-3.504-5.2-6.062-6.938z"></path>
        </symbol>
        <symbol id="icon-arrow-right" viewBox="0 0 32 32">
          <path d="M31 16l-15-15v9h-16v12h16v9z"></path>
        </symbol>
        <symbol id="icon-chrome" viewBox="0 0 32 32">
          <path d="M8.071 13.954l-4.579-7.931c2.932-3.671 7.445-6.023 12.508-6.023 5.857 0 10.978 3.148 13.767 7.844h-13.055c-0.235-0.020-0.472-0.031-0.711-0.031-3.809 0-7.018 2.614-7.929 6.142zM21.728 10.156h9.171c0.711 1.81 1.101 3.781 1.101 5.844 0 8.776-7.066 15.9-15.818 15.998l6.544-11.334c0.921-1.324 1.462-2.932 1.462-4.664 0-2.287-0.943-4.357-2.459-5.844zM10.188 16c0-3.205 2.607-5.813 5.813-5.813s5.813 2.607 5.813 5.813c0 3.205-2.608 5.813-5.813 5.813s-5.813-2.608-5.813-5.813zM18.193 23.889l-4.581 7.934c-7.704-1.153-13.613-7.797-13.613-15.822 0-2.851 0.746-5.526 2.053-7.845l6.532 11.314c1.308 2.785 4.14 4.718 7.415 4.718 0.759 0 1.495-0.104 2.193-0.299z"></path>
        </symbol>
        <symbol id="icon-firefox" viewBox="0 0 32 32">
          <path d="M31.954 10.442l-0.371 2.377c0 0-0.53-4.402-1.179-6.047-0.995-2.521-1.438-2.501-1.441-2.498 0.667 1.694 0.546 2.604 0.546 2.604s-1.181-3.219-4.303-4.243c-3.459-1.134-5.33-0.824-5.547-0.765-0.033-0-0.064-0-0.095-0 0.026 0.002 0.050 0.005 0.076 0.007-0.001 0.001-0.003 0.001-0.003 0.002 0.014 0.017 3.822 0.666 4.497 1.594 0 0-1.617 0-3.227 0.464-0.073 0.021 5.923 0.749 7.148 6.74 0 0-0.657-1.371-1.47-1.604 0.535 1.626 0.397 4.712-0.112 6.245-0.066 0.197-0.133-0.853-1.135-1.305 0.321 2.301-0.019 5.952-1.616 6.957-0.124 0.078 1.001-3.603 0.226-2.18-4.46 6.838-9.731 3.155-12.101 1.535 1.215 0.264 3.52-0.041 4.541-0.8 0.001-0.001 0.002-0.002 0.004-0.003 1.108-0.758 1.765-1.311 2.354-1.18s0.982-0.46 0.524-0.985c-0.459-0.526-1.572-1.249-3.079-0.855-1.063 0.278-2.379 1.454-4.389 0.264-1.543-0.914-1.688-1.673-1.702-2.199 0.038-0.186 0.086-0.361 0.143-0.52 0.178-0.496 0.716-0.646 1.015-0.764 0.508 0.087 0.946 0.246 1.405 0.481 0.006-0.153 0.008-0.356-0.001-0.586 0.044-0.088 0.017-0.352-0.054-0.674-0.041-0.322-0.107-0.655-0.211-0.959 0-0 0.001-0 0.001-0 0.002-0.001 0.003-0.001 0.005-0.002s0.005-0.004 0.007-0.006c0-0.001 0.001-0.001 0.001-0.002 0.003-0.004 0.005-0.008 0.006-0.015 0.032-0.144 0.376-0.423 0.804-0.722 0.383-0.268 0.834-0.553 1.19-0.774 0.314-0.195 0.554-0.34 0.605-0.378 0.019-0.015 0.042-0.032 0.068-0.051 0.005-0.004 0.009-0.007 0.014-0.011 0.003-0.002 0.006-0.005 0.009-0.007 0.169-0.135 0.421-0.389 0.474-0.924 0-0.001 0-0.002 0-0.004 0.002-0.016 0.003-0.032 0.004-0.048 0.001-0.011 0.002-0.023 0.002-0.034 0-0.009 0.001-0.018 0.001-0.027 0.001-0.021 0.002-0.043 0.002-0.065 0-0.001 0-0.002 0-0.004 0.001-0.052-0-0.106-0.003-0.163-0.002-0.032-0.004-0.060-0.009-0.086-0-0.001-0.001-0.003-0.001-0.004-0.001-0.003-0.001-0.005-0.002-0.008-0.001-0.005-0.002-0.009-0.004-0.013-0-0.001-0-0.001-0.001-0.001-0.002-0.005-0.004-0.010-0.005-0.014-0-0-0-0-0-0.001-0.055-0.128-0.26-0.177-1.108-0.191-0.001-0-0.002-0-0.002-0v0c-0.346-0.006-0.798-0.006-1.391-0.004-1.039 0.004-1.613-1.016-1.797-1.41 0.251-1.389 0.977-2.379 2.17-3.051 0.023-0.013 0.018-0.023-0.009-0.031 0.233-0.141-2.82-0.004-4.225 1.782-1.247-0.31-2.333-0.289-3.269-0.069-0.18-0.005-0.404-0.027-0.67-0.083-0.623-0.564-1.514-1.606-1.562-2.85 0 0-0.003 0.002-0.008 0.006-0.001-0.012-0.002-0.024-0.002-0.036 0 0-1.897 1.458-1.613 5.434-0.001 0.064-0.002 0.125-0.004 0.184-0.514 0.696-0.768 1.282-0.787 1.411-0.455 0.926-0.917 2.32-1.292 4.437 0 0 0.263-0.833 0.79-1.777-0.388 1.188-0.693 3.036-0.514 5.808 0 0 0.047-0.615 0.215-1.5 0.131 1.719 0.704 3.841 2.152 6.337 2.78 4.791 7.052 7.211 11.775 7.582 0.839 0.069 1.689 0.071 2.544 0.006 0.079-0.006 0.157-0.011 0.236-0.018 0.968-0.068 1.942-0.214 2.914-0.449 13.287-3.212 11.842-19.256 11.842-19.256z"></path>
        </symbol>
        <symbol id="icon-IE" viewBox="0 0 32 32">
          <path d="M22.944 19.651h7.377c0.057-0.512 0.080-1.034 0.080-1.569 0-2.507-0.673-4.858-1.848-6.883 1.215-3.228 1.172-5.968-0.455-7.606-1.547-1.54-5.697-1.29-10.388 0.787-0.347-0.026-0.697-0.040-1.051-0.040-6.439 0-11.841 4.431-13.335 10.402 2.020-2.586 4.145-4.461 6.984-5.826-0.258 0.242-1.764 1.739-2.018 1.993-7.486 7.484-9.847 17.26-7.306 19.8 1.931 1.93 5.43 1.604 9.449-0.364 1.869 0.952 3.984 1.488 6.226 1.488 6.035 0 11.15-3.885 13.003-9.295h-7.433c-1.023 1.887-3.023 3.171-5.319 3.171s-4.296-1.284-5.319-3.171c-0.455-0.852-0.716-1.83-0.716-2.864v-0.023h12.071zM10.884 16.025c0.171-3.035 2.694-5.456 5.774-5.456s5.604 2.421 5.774 5.456h-11.548zM28.030 5.119c1.048 1.059 1.021 3.007 0.125 5.438-1.535-2.341-3.766-4.186-6.4-5.239 2.816-1.207 5.106-1.367 6.274-0.199zM2.921 30.227c-1.337-1.337-0.934-4.144 0.788-7.526 1.072 3.008 3.161 5.534 5.854 7.161-2.982 1.354-5.423 1.584-6.643 0.365z"></path>
        </symbol>
        <symbol id="icon-opera" viewBox="0 0 32 32">
          <path d="M32 16v0 0c0 4.738-2.063 9-5.337 11.925-4.106 2-7.931 0.6-9.194-0.275 4.031-0.881 7.075-5.756 7.075-11.65s-3.044-10.769-7.075-11.656c1.269-0.875 5.094-2.275 9.194-0.275 3.275 2.931 5.337 7.194 5.337 11.931v0 0z"></path>
          <path d="M10.731 6.981c-1.769 2.087-2.912 5.175-2.987 8.644 0 0.006 0 0.744 0 0.756 0.075 3.462 1.225 6.55 2.994 8.637 2.294 2.981 5.706 4.869 9.519 4.869 2.344 0 4.538-0.712 6.413-1.956-2.837 2.531-6.575 4.069-10.669 4.069-0.256 0-0.512-0.006-0.762-0.019-8.481-0.4-15.238-7.4-15.238-15.981 0-8.838 7.162-16 16-16 0.019 0 0.038 0 0.063 0 4.075 0.013 7.787 1.55 10.606 4.075-1.875-1.244-4.069-1.962-6.413-1.962-3.813 0-7.225 1.887-9.525 4.869z"></path>
        </symbol>
        <symbol id="icon-checkmark" viewBox="0 0 32 32">
          <path d="M6 12l-6 6 12 12 20-20-6-6-14 14z"></path>
        </symbol>
        <symbol id="icon-x" viewBox="0 0 32 32">
          <path d="M30 24.398l-8.406-8.398 8.406-8.398-5.602-5.602-8.398 8.402-8.402-8.402-5.598 5.602 8.398 8.398-8.398 8.398 5.598 5.602 8.402-8.402 8.398 8.402z"></path>
        </symbol>
        <symbol id="icon-cog" viewBox="0 0 32 32">
          <path d="M32 17.969v-4l-4.781-1.992c-0.133-0.375-0.273-0.738-0.445-1.094l1.93-4.805-2.829-2.828-4.762 1.961c-0.363-0.176-0.734-0.324-1.117-0.461l-2.027-4.75h-4l-1.977 4.734c-0.398 0.141-0.781 0.289-1.16 0.469l-4.754-1.91-2.828 2.828 1.938 4.711c-0.188 0.387-0.34 0.781-0.485 1.188l-4.703 2.011v4l4.707 1.961c0.145 0.406 0.301 0.801 0.488 1.188l-1.902 4.742 2.828 2.828 4.723-1.945c0.379 0.18 0.766 0.324 1.164 0.461l2.023 4.734h4l1.98-4.758c0.379-0.141 0.754-0.289 1.113-0.461l4.797 1.922 2.828-2.828-1.969-4.773c0.168-0.359 0.305-0.723 0.438-1.094l4.782-2.039zM15.969 22c-3.312 0-6-2.688-6-6s2.688-6 6-6 6 2.688 6 6-2.688 6-6 6z"></path>
        </symbol>
        <symbol id="icon-plus" viewBox="0 0 32 32">
          <path d="M32 12h-12v-12h-8v12h-12v8h12v12h8v-12h12z"></path>
        </symbol>
        <symbol id="icon-minus" viewBox="0 0 32 32">
          <path d="M0 12h32v8h-32z"></path>
        </symbol>
        <symbol id="icon-bolt" viewBox="0 0 32 32">
          <path d="M32 0l-24 16 6 4-14 12 24-12-6-4z"></path>
        </symbol>
        <symbol id="icon-moon-fill" viewBox="0 0 32 32">
<path d="M24.633 22.184c-8.188 0-14.82-6.637-14.82-14.82 0-2.695 0.773-5.188 2.031-7.363-6.824 1.968-11.844 8.187-11.844 15.644 0 9.031 7.32 16.355 16.352 16.355 7.457 0 13.68-5.023 15.648-11.844-2.18 1.254-4.672 2.028-7.367 2.028z"></path>
</symbol>
        <symbol id="icon-equalizer" viewBox="0 0 32 32">
          <path d="M18 2c0-1.1-0.9-2-2-2s-2 0.9-2 2v18h-2v4h2v6c0 1.1 0.9 2 2 2s2-0.9 2-2v-6h2v-4h-2v-18zM6 2c0-1.1-0.9-2-2-2s-2 0.9-2 2v10h-2v4h2v14c0 1.1 0.9 2 2 2s2-0.9 2-2v-14h2v-4h-2v-10zM32 8h-2v-6c0-1.1-0.9-2-2-2s-2 0.9-2 2v6h-2v4h2v18c0 1.1 0.9 2 2 2s2-0.9 2-2v-18h2v-4z"></path>
        </symbol>
        <symbol id="icon-user" viewBox="0 0 24 32">
          <path d="M12 16c-6.625 0-12 5.375-12 12 0 2.211 1.789 4 4 4h16c2.211 0 4-1.789 4-4 0-6.625-5.375-12-12-12zM6 6c0-3.314 2.686-6 6-6s6 2.686 6 6c0 3.314-2.686 6-6 6s-6-2.686-6-6z"></path>
        </symbol>
        <symbol id="icon-tag-stroke" viewBox="0 0 32 32">
          <path d="M0 0v13.273l18.727 18.727c0 0 0-10.793 0-13.27 2.477 0 13.273 0 13.273 0l-18.727-18.73h-13.273zM11.797 3.562c0.773 0.77 7.879 7.883 11.602 11.605-3.102 0-8.234 0-8.234 0s0 5.133 0 8.227c-3.724-3.718-10.829-10.828-11.603-11.593 0-1.055 0-5.961 0-8.238 2.278-0.001 7.18-0.001 8.235-0.001zM11.699 8.613c0 1.703-1.383 3.086-3.082 3.086-1.703 0-3.086-1.383-3.086-3.086 0-1.699 1.383-3.078 3.086-3.078 1.699 0 3.082 1.379 3.082 3.078z"></path>
        </symbol>
        <symbol id="icon-tag-fill" viewBox="0 0 32 32">
          <path d="M13.277 0h-13.277v13.277l18.719 18.723v-13.277h13.281l-18.723-18.723zM7.312 11.121c-2.102 0-3.805-1.703-3.805-3.805s1.703-3.805 3.805-3.805 3.805 1.703 3.805 3.805-1.703 3.805-3.805 3.805z"></path>
        </symbol>
        <symbol id="icon-sun-stroke" viewBox="0 0 32 32">
          <path d="M16.001 12c2.203 0 4 1.795 4 4s-1.797 4-4 4-4-1.795-4-4 1.797-4 4-4M16.001 8c-4.418 0-8 3.582-8 8s3.582 8 8 8c4.418 0 7.999-3.582 7.999-8s-3.581-8-7.999-8v0zM14 2c0-1.105 0.895-2 2-2s2 0.895 2 2c0 1.105-0.895 2-2 2s-2-0.895-2-2zM4 6c0-1.105 0.895-2 2-2s2 0.895 2 2c0 1.105-0.895 2-2 2s-2-0.895-2-2zM2 14c1.105 0 2 0.895 2 2 0 1.107-0.895 2-2 2s-2-0.893-2-2c0-1.105 0.895-2 2-2zM4 26c0-1.105 0.895-2 2-2s2 0.895 2 2c0 1.105-0.895 2-2 2s-2-0.895-2-2zM14 30c0-1.109 0.895-2 2-2 1.108 0 2 0.891 2 2 0 1.102-0.892 2-2 2-1.105 0-2-0.898-2-2zM24 26c0-1.105 0.895-2 2-2s2 0.895 2 2c0 1.105-0.895 2-2 2s-2-0.895-2-2zM30 18c-1.104 0-2-0.896-2-2 0-1.107 0.896-2 2-2s2 0.893 2 2c0 1.104-0.896 2-2 2zM24 6c0-1.105 0.895-2 2-2s2 0.895 2 2c0 1.105-0.895 2-2 2s-2-0.895-2-2z"></path>
        </symbol>
        <symbol id="icon-sun-fill" viewBox="0 0 32 32">
          <path d="M16.001 8c-4.418 0-8 3.582-8 8s3.582 8 8 8c4.418 0 7.999-3.582 7.999-8s-3.581-8-7.999-8v0zM14 2c0-1.105 0.895-2 2-2s2 0.895 2 2c0 1.105-0.895 2-2 2s-2-0.895-2-2zM4 6c0-1.105 0.895-2 2-2s2 0.895 2 2c0 1.105-0.895 2-2 2s-2-0.895-2-2zM2 14c1.105 0 2 0.895 2 2 0 1.107-0.895 2-2 2s-2-0.893-2-2c0-1.105 0.895-2 2-2zM4 26c0-1.105 0.895-2 2-2s2 0.895 2 2c0 1.105-0.895 2-2 2s-2-0.895-2-2zM14 30c0-1.109 0.895-2 2-2 1.108 0 2 0.891 2 2 0 1.102-0.892 2-2 2-1.105 0-2-0.898-2-2zM24 26c0-1.105 0.895-2 2-2s2 0.895 2 2c0 1.105-0.895 2-2 2s-2-0.895-2-2zM30 18c-1.104 0-2-0.896-2-2 0-1.107 0.896-2 2-2s2 0.893 2 2c0 1.104-0.896 2-2 2zM24 6c0-1.105 0.895-2 2-2s2 0.895 2 2c0 1.105-0.895 2-2 2s-2-0.895-2-2z"></path>
        </symbol>
        <symbol id="icon-star" viewBox="0 0 32 32">
          <path d="M22.137 19.625l9.863-7.625h-12l-4-12-4 12h-12l9.875 7.594-3.875 12.406 10.016-7.68 9.992 7.68z"></path>
        </symbol>
      </defs>
    </symbol>
  </symbol>
</svg>